<?xml version="1.0" encoding="UTF-8"?>
<svg id="Calque_1" data-name="Calque 1" xmlns="http://www.w3.org/2000/svg" viewBox="0 0 71 41.61">
  <defs>
    <style>
      .cls-1 {
        fill: #0081ce;
      }

      .cls-2 {
        fill: #3eb489;
      }
    </style>
  </defs>
  <path class="cls-1" d="M28.3,30.02l-14.83-6.63-5.89,5.58-7.58-3.39L28.53,0l7.3,3.27v38.34s-7.76-3.47-7.76-3.47l.23-8.11ZM28.49,23.37l.4-14.5-10.54,9.97,10.13,4.53Z"/>
  <path class="cls-2" d="M69.14,25.15c1.24,1.63,1.86,3.62,1.86,6,0,3.36-1.31,5.94-3.92,7.75-2.61,1.81-6.42,2.71-11.42,2.71h-19.83V3.27h18.73c4.67,0,8.26.9,10.76,2.68,2.5,1.79,3.75,4.22,3.75,7.28,0,1.86-.45,3.52-1.34,4.98-.9,1.46-2.15,2.61-3.75,3.45,2.19.69,3.91,1.85,5.15,3.48ZM44.65,9.95v9.04h8.82c2.19,0,3.85-.38,4.98-1.15,1.13-.77,1.7-1.9,1.7-3.4s-.57-2.62-1.7-3.37c-1.13-.75-2.79-1.12-4.98-1.12h-8.82ZM60.29,33.78c1.19-.77,1.78-1.95,1.78-3.56,0-3.18-2.35-4.77-7.07-4.77h-10.35v9.48h10.35c2.34,0,4.1-.38,5.28-1.15Z"/>
</svg>