<?xml version="1.0" encoding="UTF-8"?>
<svg id="Calque_1" data-name="Calque 1" xmlns="http://www.w3.org/2000/svg" viewBox="0 0 200 250">
  <defs>
    <style>
      .cls-1 {
        fill: #3eb489;
      }
    </style>
  </defs>
  <g>
    <path class="cls-1" d="M39.5,230c0,10.75-8.75,19.5-19.5,19.5-10.75,0-19.5-8.75-19.5-19.5V20c0-10.75,8.75-19.5,19.5-19.5s19.5,8.75,19.5,19.5v210Z"/>
    <path class="cls-1" d="M1.01,20c0-10.47,8.52-18.99,18.99-18.99s18.99,8.52,18.99,18.99v210c0,10.47-8.52,18.99-18.99,18.99-10.47,0-18.99-8.52-18.99-18.99V20M0,20v210c0,11.05,8.95,20,20,20,11.05,0,20-8.95,20-20V20C40,8.95,31.05,0,20,0S0,8.95,0,20h0Z"/>
  </g>
  <g>
    <path class="cls-1" d="M119.5,230c0,10.75-8.75,19.5-19.5,19.5-10.75,0-19.5-8.75-19.5-19.5V20c0-10.75,8.75-19.5,19.5-19.5s19.5,8.75,19.5,19.5v210Z"/>
    <path class="cls-1" d="M81.01,20c0-10.47,8.52-18.99,18.99-18.99s18.99,8.52,18.99,18.99v210c0,10.47-8.52,18.99-18.99,18.99-10.47,0-18.99-8.52-18.99-18.99V20M80,20v210c0,11.05,8.95,20,20,20,11.05,0,20-8.95,20-20V20C120,8.95,111.05,0,100,0s-20,8.95-20,20h0Z"/>
  </g>
  <g>
    <path class="cls-1" d="M199.5,230c0,10.75-8.75,19.5-19.5,19.5-10.75,0-19.5-8.75-19.5-19.5V20c0-10.75,8.75-19.5,19.5-19.5s19.5,8.75,19.5,19.5v210Z"/>
    <path class="cls-1" d="M161.01,20c0-10.47,8.52-18.99,18.99-18.99s18.99,8.52,18.99,18.99v210c0,10.47-8.52,18.99-18.99,18.99-10.47,0-18.99-8.52-18.99-18.99V20M160,20v210c0,11.05,8.95,20,20,20,11.05,0,20-8.95,20-20V20c0-11.05-8.95-20-20-20s-20,8.95-20,20h0Z"/>
  </g>
</svg>