<?xml version="1.0" encoding="UTF-8"?>
<svg id="Calque_1" data-name="Calque 1" xmlns="http://www.w3.org/2000/svg" viewBox="0 0 250 200">
  <defs>
    <style>
      .cls-1 {
        fill: #0081ce;
      }
    </style>
  </defs>
  <g>
    <path class="cls-1" d="M20,39.5C9.25,39.5.5,30.75.5,20S9.25.5,20,.5h210c10.75,0,19.5,8.75,19.5,19.5s-8.75,19.5-19.5,19.5H20Z"/>
    <path class="cls-1" d="M230,1.01c10.47,0,18.99,8.52,18.99,18.99s-8.52,18.99-18.99,18.99H20c-10.47,0-18.99-8.52-18.99-18.99S9.53,1.01,20,1.01h210M230,0H20C8.95,0,0,8.95,0,20s8.95,20,20,20h210c11.05,0,20-8.95,20-20S241.05,0,230,0h0Z"/>
  </g>
  <g>
    <path class="cls-1" d="M20,119.5c-10.75,0-19.5-8.75-19.5-19.5s8.75-19.5,19.5-19.5h210c10.75,0,19.5,8.75,19.5,19.5s-8.75,19.5-19.5,19.5H20Z"/>
    <path class="cls-1" d="M230,81.01c10.47,0,18.99,8.52,18.99,18.99s-8.52,18.99-18.99,18.99H20c-10.47,0-18.99-8.52-18.99-18.99s8.52-18.99,18.99-18.99h210M230,80H20c-11.05,0-20,8.95-20,20h0c0,11.05,8.95,20,20,20h210c11.05,0,20-8.95,20-20h0c0-11.05-8.95-20-20-20h0Z"/>
  </g>
  <g>
    <path class="cls-1" d="M20,199.5c-10.75,0-19.5-8.75-19.5-19.5s8.75-19.5,19.5-19.5h210c10.75,0,19.5,8.75,19.5,19.5s-8.75,19.5-19.5,19.5H20Z"/>
    <path class="cls-1" d="M230,161.01c10.47,0,18.99,8.52,18.99,18.99s-8.52,18.99-18.99,18.99H20c-10.47,0-18.99-8.52-18.99-18.99s8.52-18.99,18.99-18.99h210M230,160H20c-11.05,0-20,8.95-20,20h0c0,11.05,8.95,20,20,20h210c11.05,0,20-8.95,20-20h0c0-11.05-8.95-20-20-20h0Z"/>
  </g>
</svg>